HIERARCHY
ROOT SpineBase
{
  OFFSET 0.000000 0.000000 0.000000
  CHANNELS 6 Xposition Yposition Zposition Zrotation Xrotation Yrotation
  JOINT SpineMid
  {
    OFFSET 0.000000 27.591777 0.000000
    CHANNELS 3 Zrotation Xrotation Yrotation
    JOINT SpineShoulder
    {
      OFFSET 0.049247 20.459716 -0.740103
      CHANNELS 3 Zrotation Xrotation Yrotation
      JOINT Neck
      {
        OFFSET 0.042721 6.752953 -0.539272
        CHANNELS 3 Zrotation Xrotation Yrotation
        JOINT Head
        {
          OFFSET 4.332049 12.128685 1.895108
          CHANNELS 3 Zrotation Xrotation Yrotation
          End Site
          {
            OFFSET 0 0 0
          }
        }
      }
      JOINT ShoulderLeft
      {
        OFFSET -10.257251 -5.712401 -11.750175
        CHANNELS 3 Zrotation Xrotation Yrotation
        JOINT ElbowLeft
        {
          OFFSET -5.891091 -23.586412 -7.466207
          CHANNELS 3 Zrotation Xrotation Yrotation
          JOINT WristLeft
          {
            OFFSET 19.517232 -12.374539 -15.158324
            CHANNELS 3 Zrotation Xrotation Yrotation
            JOINT HandLeft
            {
              OFFSET 2.032828 -3.733884 -0.756537
              CHANNELS 3 Zrotation Xrotation Yrotation
              JOINT HandTipLeft
              {
                OFFSET 3.933561 -5.703172 -1.538661
                CHANNELS 3 Zrotation Xrotation Yrotation
                End Site
                {
                  OFFSET 0 0 0
                }
              }
              JOINT ThumbLeft
              {
                OFFSET -1.732827 -3.964104 -0.371403
                CHANNELS 3 Zrotation Xrotation Yrotation
                End Site
                {
                  OFFSET 0 0 0
                }
              }
            }
          }
        }
      }
      JOINT ShoulderRight
      {
        OFFSET 11.359493 -4.008691 16.649066
        CHANNELS 3 Zrotation Xrotation Yrotation
        JOINT ElbowRight
        {
          OFFSET 5.734601 -21.339723 8.418505
          CHANNELS 3 Zrotation Xrotation Yrotation
          JOINT WristRight
          {
            OFFSET 19.541104 -6.299039 -6.218553
            CHANNELS 3 Zrotation Xrotation Yrotation
            JOINT HandRight
            {
              OFFSET 0.692085 -2.684720 -1.380276
              CHANNELS 3 Zrotation Xrotation Yrotation
              JOINT HandTipRight
              {
                OFFSET 1.804652 -2.384157 -4.834642
                CHANNELS 3 Zrotation Xrotation Yrotation
                End Site
                {
                  OFFSET 0 0 0
                }
              }
              JOINT ThumbRight
              {
                OFFSET 0.410008 0.918572 -0.218338
                CHANNELS 3 Zrotation Xrotation Yrotation
                End Site
                {
                  OFFSET 0 0 0
                }
              }
            }
          }
        }
      }
    }
  }
  JOINT HipLeft
  {
    OFFSET -3.999345 0.788027 -8.607999
    CHANNELS 3 Zrotation Xrotation Yrotation
    JOINT KneeLeft
    {
      OFFSET 9.851237 1.795439 -33.114498
      CHANNELS 3 Zrotation Xrotation Yrotation
      JOINT AnkleLeft
      {
        OFFSET 19.991727 -37.320841 3.551843
        CHANNELS 3 Zrotation Xrotation Yrotation
        JOINT FootLeft
        {
          OFFSET 2.088293 -8.704684 4.555105
          CHANNELS 3 Zrotation Xrotation Yrotation
          End Site
          {
            OFFSET 0 0 0
          }
        }
      }
    }
  }
  JOINT HipRight
  {
    OFFSET 5.010684 -0.449305 1.768670
    CHANNELS 3 Zrotation Xrotation Yrotation
    JOINT KneeRight
    {
      OFFSET 37.994529 1.352778 -1.023123
      CHANNELS 3 Zrotation Xrotation Yrotation
      JOINT AnkleRight
      {
        OFFSET -3.272934 -38.343129 5.771023
        CHANNELS 3 Zrotation Xrotation Yrotation
        JOINT FootRight
        {
          OFFSET -4.547552 -2.334426 -14.952770
          CHANNELS 3 Zrotation Xrotation Yrotation
          End Site
          {
            OFFSET 0 0 0
          }
        }
      }
    }
  }
}
MOTION
Frames: 9
Frame Time: 0.033333
-59.858728 46.387872 404.383550 -0.000000 0.000000 -49.032318 -0.000000 0.000000 49.032318 -0.000000 0.000000 0.000000 -0.000000 0.000000 0.000000 0.000000 0.000000 0.000000 -0.000000 0.000000 0.000000 -0.000000 0.000000 0.000000 -0.000000 0.000000 0.000000 -0.000000 0.000000 0.000000 0.000000 0.000000 0.000000 0.000000 0.000000 0.000000 -0.000000 0.000000 0.000000 -0.000000 0.000000 0.000000 -0.000000 0.000000 0.000000 -0.000000 0.000000 0.000000 0.000000 0.000000 0.000000 0.000000 0.000000 0.000000 -0.000000 0.000000 49.032318 -0.000000 0.000000 0.000000 -0.000000 0.000000 0.000000 0.000000 0.000000 0.000000 -0.000000 0.000000 49.032318 -0.000000 0.000000 0.000000 -0.000000 0.000000 0.000000 0.000000 0.000000 0.000000
-59.799578 46.408835 404.261109 0.148662 0.117596 -48.350328 -0.010927 -0.189235 48.350157 -0.000000 0.000000 0.000000 -0.000000 0.000000 0.000000 0.000000 0.000000 0.000000 -0.000000 0.000000 0.000000 -0.241076 -0.651716 -0.741583 1.763853 0.394881 0.266275 -0.627542 -1.213588 -0.794582 0.000000 0.000000 0.000000 0.000000 0.000000 0.000000 0.719143 -0.704212 0.098475 -2.857642 1.149526 3.625335 2.974071 -5.710195 -5.580769 -1.161885 -0.058721 -2.277909 0.000000 0.000000 0.000000 0.000000 0.000000 0.000000 1.027318 -1.892183 48.155586 1.521827 0.747940 -0.349519 2.999930 4.619759 3.267946 0.000000 0.000000 0.000000 -0.010927 -0.189235 48.350157 -0.000000 0.000000 0.000000 -0.000029 -0.686249 1.390306 0.000000 0.000000 0.000000
-59.748287 46.422815 404.150304 0.296241 0.209901 -47.777431 -0.043640 -0.360434 47.776751 -0.000000 0.000000 0.000000 -0.096126 -1.333804 0.491065 0.000000 0.000000 0.000000 -0.000000 0.000000 0.000000 -0.477085 -1.237710 -1.400603 3.896558 0.778206 0.347225 -1.275464 -2.488946 -1.604551 0.000000 0.000000 0.000000 0.000000 0.000000 0.000000 1.358542 -1.244543 0.214663 -5.721264 2.007721 7.401244 6.633583 -9.310274 -11.008096 -3.307505 -3.780671 -6.054335 0.000000 0.000000 0.000000 0.000000 0.000000 0.000000 1.573264 -3.084180 47.445881 2.556068 0.913542 -0.677270 6.109612 9.727525 6.223401 0.000000 0.000000 0.000000 -0.324479 -0.642366 47.027059 0.397710 -0.013304 0.747280 0.008204 -1.244230 2.548672 0.000000 0.000000 0.000000
-59.704854 46.429813 404.051137 0.442767 0.276967 -47.322366 -0.096528 -0.513259 47.320864 -0.000000 0.000000 0.000000 -0.128195 -1.810626 0.666138 0.000000 0.000000 0.000000 -0.000000 0.000000 0.000000 -0.706589 -1.761013 -1.979330 6.458526 1.129270 0.218114 -1.980899 -3.696137 -2.319170 0.000000 0.000000 0.000000 0.000000 0.000000 0.000000 1.919426 -1.623909 0.344589 -8.532226 2.561380 11.212556 11.301027 -10.530023 -15.875071 -6.120200 -10.637227 -11.150403 0.000000 0.000000 0.000000 0.000000 0.000000 0.000000 1.670271 -3.558096 46.885079 3.106516 0.500504 -0.934881 8.795881 14.801585 8.572621 0.000000 0.000000 0.000000 -0.483871 -0.882772 46.108653 0.534813 -0.022962 1.207599 0.017261 -1.671146 3.469555 0.000000 0.000000 0.000000
-59.669280 46.429830 403.963608 0.588270 0.318836 -46.992794 -0.168116 -0.647651 46.990207 0.800886 0.356835 0.059223 -0.955083 -2.517927 0.729888 0.000000 0.000000 0.000000 0.009281 0.207842 -0.460672 -1.719564 -2.800825 -2.094908 9.543560 1.423428 -0.151177 -2.869433 -4.673357 -2.795283 0.000000 0.000000 0.000000 0.000000 0.000000 0.000000 1.600111 -2.203651 0.435786 -11.228561 2.813757 14.941240 16.890558 -9.807875 -19.989513 -9.074389 -18.642842 -16.600151 0.000000 0.000000 0.000000 0.000000 0.000000 0.000000 1.338325 -3.297645 46.471239 3.175720 -0.493683 -1.101986 10.543746 19.113132 10.132220 0.000000 0.000000 0.000000 -0.636847 -1.071006 45.258902 0.630609 -0.034939 1.724468 0.021216 -1.965389 4.149258 0.000000 0.000000 0.000000
-59.641564 46.422864 403.887716 0.732777 0.335542 -46.795144 0.087684 0.039917 46.822478 0.175789 0.088989 0.047909 -1.168069 -2.775394 0.796497 0.000000 0.000000 0.000000 0.177795 0.392934 -0.647960 -2.284050 -3.433433 -2.358361 13.282780 1.625923 -0.797629 -4.176727 -5.256710 -2.882268 0.000000 0.000000 0.000000 0.000000 0.000000 0.000000 1.809863 -2.301787 0.571957 -13.753973 2.783724 18.479638 22.913632 -7.962723 -23.386201 -11.541374 -25.712038 -21.125766 0.000000 0.000000 0.000000 0.000000 0.000000 0.000000 0.583870 -2.285756 46.217749 2.763490 -2.080835 -1.185896 11.053729 22.033168 10.880115 0.000000 0.000000 0.000000 -0.780747 -1.208607 44.485890 0.685178 -0.049614 2.296678 0.015787 -2.126120 4.585505 0.000000 0.000000 0.000000
-59.652998 46.394012 403.820611 0.827130 0.322995 -46.804487 0.086817 0.124290 46.836850 0.145929 0.118659 0.051537 -1.405719 -2.927662 0.827087 0.000000 0.000000 0.000000 0.662189 0.852850 -0.991443 -3.216667 -4.473484 -2.441205 19.851680 2.364624 -2.034628 -9.445046 -7.455730 -2.919138 0.000000 0.000000 0.000000 0.000000 0.000000 0.000000 2.055094 -2.108900 0.782470 -16.667943 2.474201 23.612777 28.817825 -6.432296 -27.511637 -12.387341 -33.904033 -31.004751 0.000000 0.000000 0.000000 0.000000 0.000000 0.000000 -0.862103 0.046749 46.316425 1.624493 -4.655964 -1.208169 9.496667 22.539063 10.456766 0.000000 0.000000 0.000000 -0.895165 -1.273251 43.846863 -0.119338 0.710821 2.757760 0.752211 -2.969595 5.347009 0.000000 0.000000 0.000000
-59.638488 46.357575 403.787197 0.970559 0.266441 -47.178361 0.104851 0.198719 47.218119 0.164524 0.100554 0.062416 -1.628518 -2.896431 0.810180 0.000000 0.000000 0.000000 0.961323 1.125673 -1.244957 -3.949176 -5.047005 -2.493353 25.598935 2.624469 -3.317057 -12.558442 -6.707638 -1.690064 0.000000 0.000000 0.000000 0.000000 0.000000 0.000000 2.129464 -1.839487 0.940898 -20.562260 1.238245 28.280937 41.041561 -4.571003 -31.732420 -16.448027 -34.288936 -20.250459 0.000000 0.000000 0.000000 0.000000 0.000000 0.000000 -3.116015 3.592848 47.856376 -0.038616 -8.128271 -2.036169 6.251723 16.577259 7.961945 0.000000 0.000000 0.000000 -0.986774 -1.267552 43.624685 -0.458817 1.114473 3.286315 0.917440 -3.150409 5.193583 0.000000 0.000000 0.000000
-59.629974 46.348081 403.718448 1.137459 0.241781 -47.269275 0.215913 0.227927 47.319085 0.182019 0.063179 0.076114 -1.918329 -2.539748 0.706773 0.000000 0.000000 0.000000 1.297149 1.412566 -1.519264 -4.712029 -5.433191 -2.393662 31.151994 1.491028 -4.954565 -16.156811 -5.355914 -0.035112 0.000000 0.000000 0.000000 0.000000 0.000000 0.000000 2.066202 -0.970656 1.175933 -21.642289 0.437184 29.476710 42.462948 -4.094279 -32.582760 -15.058483 -34.886141 -22.147714 0.000000 0.000000 0.000000 0.000000 0.000000 0.000000 -5.028355 6.435459 47.554130 -1.998841 -11.358128 -1.766325 4.266630 19.820600 7.812702 0.000000 0.000000 0.000000 -1.097242 -1.306165 42.898518 -0.837800 1.448128 4.032772 1.146511 -3.299729 5.009565 0.000000 0.000000 0.000000
